/* XPM */
static const char *collect[] = {
/* columns rows colors chars-per-pixel */
"64 64 11 1 ",
"  c #3E8948",
". c #F9E6CF",
"X c black",
"o c #5AC54F",
"O c #33984B",
"+ c #1E6F50",
"@ c #134C4C",
"# c #FEAE34",
"$ c #F77622",
"% c #D45608",
"& c white",
/* pixels */
"                                    ....    ........    ....    ",
"                                    ....    ........    ....    ",
"                                    ....    ........    ....    ",
"                                    ....    ........    ....    ",
"                                ....XXXX....XXXXXXXX....XXXX....",
"                                ....XXXX....XXXXXXXX....XXXX....",
"                                ....XXXX....XXXXXXXX....XXXX....",
"                                ....XXXX....XXXXXXXX....XXXX....",
"                            ....XXXXooooXXXXooooOOOOXXXXooooXXXX",
"                            ....XXXXooooXXXXooooOOOOXXXXooooXXXX",
"                            ....XXXXooooXXXXooooOOOOXXXXooooXXXX",
"                            ....XXXXooooXXXXooooOOOOXXXXooooXXXX",
"                            ....XXXXooooooooOOOOXXXXooooOOOOXXXX",
"                            ....XXXXooooooooOOOOXXXXooooOOOOXXXX",
"                            ....XXXXooooooooOOOOXXXXooooOOOOXXXX",
"                            ....XXXXooooooooOOOOXXXXooooOOOOXXXX",
"                            ........XXXX++++oooo++++++++XXXX....",
"                            ........XXXX++++oooo++++++++XXXX....",
"                            ........XXXX++++oooo++++++++XXXX....",
"                            ........XXXX++++oooo++++++++XXXX....",
"                        ....XXXXXXXXXXXX@@@@++++++++OOOOXXXXXXXX",
"                        ....XXXXXXXXXXXX@@@@++++++++OOOOXXXXXXXX",
"                        ....XXXXXXXXXXXX@@@@++++++++OOOOXXXXXXXX",
"                        ....XXXXXXXXXXXX@@@@++++++++OOOOXXXXXXXX",
"                    ....XXXX############XXXX@@@@OOOO++++ooooXXXX",
"                    ....XXXX############XXXX@@@@OOOO++++ooooXXXX",
"                    ....XXXX############XXXX@@@@OOOO++++ooooXXXX",
"                    ....XXXX############XXXX@@@@OOOO++++ooooXXXX",
"                ....XXXX############$$$$%%%%XXXXXXXXOOOOXXXX....",
"                ....XXXX############$$$$%%%%XXXXXXXXOOOOXXXX....",
"                ....XXXX############$$$$%%%%XXXXXXXXOOOOXXXX....",
"                ....XXXX############$$$$%%%%XXXXXXXXOOOOXXXX....",
"            ....XXXX########$$$$$$$$$$$$%%%%XXXX....XXXX....    ",
"            ....XXXX########$$$$$$$$$$$$%%%%XXXX....XXXX....    ",
"            ....XXXX########$$$$$$$$$$$$%%%%XXXX....XXXX....    ",
"            ....XXXX########$$$$$$$$$$$$%%%%XXXX....XXXX....    ",
"        ....XXXX########$$$$$$$$%%%%$$$$%%%%XXXX........        ",
"        ....XXXX########$$$$$$$$%%%%$$$$%%%%XXXX........        ",
"        ....XXXX########$$$$$$$$%%%%$$$$%%%%XXXX........        ",
"        ....XXXX########$$$$$$$$%%%%$$$$%%%%XXXX........        ",
"        ....XXXX####$$$$%%%%$$$$$$$$%%%%XXXX....                ",
"        ....XXXX####$$$$%%%%$$$$$$$$%%%%XXXX....                ",
"        ....XXXX####$$$$%%%%$$$$$$$$%%%%XXXX....                ",
"        ....XXXX####$$$$%%%%$$$$$$$$%%%%XXXX....                ",
"    ....XXXX########$$$$$$$$%%%%%%%%XXXX....                    ",
"    ....XXXX########$$$$$$$$%%%%%%%%XXXX....                    ",
"    ....XXXX########$$$$$$$$%%%%%%%%XXXX....                    ",
"    ....XXXX########$$$$$$$$%%%%%%%%XXXX....                    ",
"    ....XXXX####$$$$$$$$%%%%%%%%XXXX....                        ",
"    ....XXXX####$$$$$$$$%%%%%%%%XXXX....                        ",
"    ....XXXX####$$$$$$$$%%%%%%%%XXXX....                        ",
"    ....XXXX####$$$$$$$$%%%%%%%%XXXX....                        ",
"    ....XXXX$$$$%%%%%%%%XXXXXXXX....                            ",
"    ....XXXX$$$$%%%%%%%%XXXXXXXX....                            ",
"    ....XXXX$$$$%%%%%%%%XXXXXXXX....                            ",
"    ....XXXX$$$$%%%%%%%%XXXXXXXX....                            ",
"        ....XXXXXXXXXXXX........                                ",
"        ....XXXXXXXXXXXX........                                ",
"        ....XXXXXXXXXXXX........                                ",
"        ....XXXXXXXXXXXX........                                ",
"            ............                                        ",
"            ............                                        ",
"            ............                                        ",
"            ............                                        "
};
