/* XPM */
static char *_5acc8ba8e4c489dda6d56b48c9d04e3UFOnRtFVLihHzAVT[] = {
/* columns rows colors chars-per-pixel */
"32 32 59 1 ",
"  c #3E8948",
". c #509255",
"X c #3C8846",
"o c #F57320",
"O c #E1CFBB",
"+ c #D2C9B0",
"@ c #DB5B0B",
"# c #C9BAA6",
"$ c #170C02",
"% c #181613",
"& c #F87A23",
"* c #C14E08",
"= c #408A4A",
"- c #2D1E11",
"; c #D5D6B6",
": c #302D29",
"> c #FEA932",
", c #22764F",
"< c #FEAF34",
"1 c #000303",
"2 c #1F271A",
"3 c #0B1F0E",
"4 c #191816",
"5 c #629A62",
"6 c #4EAF47",
"7 c #051007",
"8 c #2E2518",
"9 c #308F47",
"0 c #1E6B4B",
"q c #E6DEC2",
"w c #E8DEC3",
"e c #D0C7AF",
"r c #E49B2E",
"t c #E79E2F",
"y c #50B74D",
"u c #F06F1D",
"i c #2F2C27",
"p c #4AA041",
"a c #FBE8D1",
"s c #1B231A",
"d c #2B7C3E",
"f c #124542",
"g c #AA4608",
"h c #CC8D2B",
"j c #CFC7AE",
"k c #FDA230",
"l c #F98226",
"z c #619961",
"x c #2C8546",
"c c #290F00",
"v c #E8DFC3",
"b c #D0C8AF",
"n c #609961",
"m c #17594B",
"M c #629A61",
"N c #3AA14B",
"B c #CC5A13",
"V c #DC6A1E",
"C c #56C24E",
/* pixels */
"                X.ww..qaaq..ww.X",
"               =.zeennjOOjnneez.",
"              X.;+ii++:%%:++iibv",
"             =.5+#22##277s##22#O",
"            X.;e:2pp22p69ds2pp24",
"            X.wO%76y336C9d336671",
"            X.qO%76C66N933p6N971",
"            X.qO:2p6yyN9336y9ds4",
"            X.qaO#230xyy00,03s#O",
"           =.MjOO#%1m,yy,0,01%#O",
"          X.;+:%4%11fm,,0,9x71%4",
"         =.5+#8$$$$%ff00,,9x3711",
"        X.;+i8hrrrth%7fm99,,6p71",
"       =.5+#8-t<<<>r-$ffdx,,6p24",
"      X.;+i8ht<<<>lo*g$173xx32#O",
"     =.5+#8-t<>>>k&o@*$1%sddsibv",
"    X.;+i8ht<>l&&&&o@*$%##ss#+z.",
"   =.5+#8-t<>k&ooooo@*$4OO:i+;.X",
"  X.;e:8ht<>l&&o@@oo@*$4OaOe5.= ",
"  X.wO%$r<>k&ooo@@uu*g-:jqw;.X  ",
"  X.vO4$r>l&@@ooou@*c-#+M...=   ",
" =.Mb#8-t>&o@@uoou*g-:+;.XXX    ",
"X.;e:8ht<>&oou@@@*c-#+5.=       ",
"X.wO%$r<>k&oou@B*g-:+;.X        ",
"X.qO4$r>l&&o@@@*c-#+5.=         ",
"X.qO4$rk&oou***g-:+;.X          ",
"X.wO4$V&@@@*c$$-#+5.=           ",
"X.;e:-BV***g-44:+;.X            ",
" =.5+#-$$$$-#OOe5.=             ",
"  X.;+:4444:bvw;.X              ",
"   =.zjOOOOjz...=               ",
"    X.qaaaaq.XXX                "
};
