/* XPM */
static const char *tmp_exit[] = {
/* columns rows colors chars-per-pixel */
"64 64 12 1 ",
"  c #5C3E30",
". c #4D4439",
"X c #784D36",
"o c #4D564D",
"O c #6D6954",
"+ c #835F3D",
"@ c #986641",
"# c #B87F4C",
"$ c #3E8948",
"% c #D6A95E",
"& c #ADB5AD",
"* c #CBD3CB",
/* pixels */
"$$$$$$$$$$$$$$$$$$$$$$$$$$$$$$$$$$$$$$$$$$$$$$$$$$$$$$$$$$$$$$$$",
"$$$$$$$$$$$$$$$$$$$$$$$$$$$$$$$$$$$$$$$$$$$$$$$$$$$$$$$$$$$$$$$$",
"$$$$$$$$$$$$$$$$$$$$$$$$$$$$$$$$$$$$$$$$$$$$$$$$$$$$$$$$$$$$$$$$",
"$$$$$$$$$$$$$$$$$$$$$$$$$$$$$$$$$$$$$$$$$$$$$$$$$$$$$$$$$$$$$$$$",
"$$$$$$$$$$$$$$$$$$$$$$$$$$$$$$$$$$$$$$$$$$$$$$$$$$$$$$$$$$$$$$$$",
"$$$$$$$$$$$$$$$$$$$$$$$$$$$$$$$$$$$$$$$$$$$$$$$$$$$$$$$$$$$$$$$$",
"$$$$$$$$$$$$$$$$$$$$$$$$$$$$$$$$$$$$$$$$$$$$$$$$$$$$$$$$$$$$$$$$",
"$$$$$$$$$$$$$$$$$$$$$$$$$$$$$$$$$$$$$$$$$$$$$$$$$$$$$$$$$$$$$$$$",
"$$$$$$$$$$$$$$$$    XXXXXXXXXXXX    XXXX        $$$$$$$$$$$$$$$$",
"$$$$$$$$$$$$$$$$    XXXXXXXXXXXX    XXXX        $$$$$$$$$$$$$$$$",
"$$$$$$$$$$$$$$$$    XXXXXXXXXXXX    XXXX        $$$$$$$$$$$$$$$$",
"$$$$$$$$$$$$$$$$    XXXXXXXXXXXX    XXXX        $$$$$$$$$$$$$$$$",
"$$$$$$$$XXXXXXXX%%%%%%%%%%%%%%%%%%%%%%%%%%%%%%%%XXXX    $$$$$$$$",
"$$$$$$$$XXXXXXXX%%%%%%%%%%%%%%%%%%%%%%%%%%%%%%%%XXXX    $$$$$$$$",
"$$$$$$$$XXXXXXXX%%%%%%%%%%%%%%%%%%%%%%%%%%%%%%%%XXXX    $$$$$$$$",
"$$$$$$$$XXXXXXXX%%%%%%%%%%%%%%%%%%%%%%%%%%%%%%%%XXXX    $$$$$$$$",
"$$$$XXXX%%%%%%%%    @@@@@@@@@@@@XXXXXXXXXXXXXXXX%%%%%%%%XXXX++++",
"$$$$XXXX%%%%%%%%    @@@@@@@@@@@@XXXXXXXXXXXXXXXX%%%%%%%%XXXX++++",
"$$$$XXXX%%%%%%%%    @@@@@@@@@@@@XXXXXXXXXXXXXXXX%%%%%%%%XXXX++++",
"$$$$XXXX%%%%%%%%    @@@@@@@@@@@@XXXXXXXXXXXXXXXX%%%%%%%%XXXX++++",
"$$$$XXXX%%%%@@@@....XXXX....XXXX....XXXX....    XXXX%%%%    ++++",
"$$$$XXXX%%%%@@@@....XXXX....XXXX....XXXX....    XXXX%%%%    ++++",
"$$$$XXXX%%%%@@@@....XXXX....XXXX....XXXX....    XXXX%%%%    ++++",
"$$$$XXXX%%%%@@@@....XXXX....XXXX....XXXX....    XXXX%%%%    ++++",
"XXXX########........................................%%%%####    ",
"XXXX########........................................%%%%####    ",
"XXXX########........................................%%%%####    ",
"XXXX########........................................%%%%####    ",
"OOOOOOOO%%%%........................................%%%%oooooooo",
"OOOOOOOO%%%%........................................%%%%oooooooo",
"OOOOOOOO%%%%........................................%%%%oooooooo",
"OOOOOOOO%%%%........................................%%%%oooooooo",
"OOOO****OOOO%%%%................................%%%%oooo&&&&oooo",
"OOOO****OOOO%%%%................................%%%%oooo&&&&oooo",
"OOOO****OOOO%%%%................................%%%%oooo&&&&oooo",
"OOOO****OOOO%%%%................................%%%%oooo&&&&oooo",
"    OOOO********%%%%%%%%%%%%%%%%%%%%%%%%%%%%%%%%****&&&&oooo    ",
"    OOOO********%%%%%%%%%%%%%%%%%%%%%%%%%%%%%%%%****&&&&oooo    ",
"    OOOO********%%%%%%%%%%%%%%%%%%%%%%%%%%%%%%%%****&&&&oooo    ",
"    OOOO********%%%%%%%%%%%%%%%%%%%%%%%%%%%%%%%%****&&&&oooo    ",
"    @@@@OOOOoooo********&&&&************&&&&&&&&oooooooo@@@@    ",
"    @@@@OOOOoooo********&&&&************&&&&&&&&oooooooo@@@@    ",
"    @@@@OOOOoooo********&&&&************&&&&&&&&oooooooo@@@@    ",
"    @@@@OOOOoooo********&&&&************&&&&&&&&oooooooo@@@@    ",
"XXXX########@@@@OOOOOOOOooooooooOOOOOOOOoooooooo####@@@@####    ",
"XXXX########@@@@OOOOOOOOooooooooOOOOOOOOoooooooo####@@@@####    ",
"XXXX########@@@@OOOOOOOOooooooooOOOOOOOOoooooooo####@@@@####    ",
"XXXX########@@@@OOOOOOOOooooooooOOOOOOOOoooooooo####@@@@####    ",
"XXXX########@@@@####@@@@########@@@@################@@@@####    ",
"XXXX########@@@@####@@@@########@@@@################@@@@####    ",
"XXXX########@@@@####@@@@########@@@@################@@@@####    ",
"XXXX########@@@@####@@@@########@@@@################@@@@####    ",
"    ########@@@@####@@@@########@@@@################@@@@####    ",
"    ########@@@@####@@@@########@@@@################@@@@####    ",
"    ########@@@@####@@@@########@@@@################@@@@####    ",
"    ########@@@@####@@@@########@@@@################@@@@####    ",
"$$$$    ####@@@@################@@@@####@@@@########@@@@    $$$$",
"$$$$    ####@@@@################@@@@####@@@@########@@@@    $$$$",
"$$$$    ####@@@@################@@@@####@@@@########@@@@    $$$$",
"$$$$    ####@@@@################@@@@####@@@@########@@@@    $$$$",
"$$$$$$$$                                                $$$$$$$$",
"$$$$$$$$                                                $$$$$$$$",
"$$$$$$$$                                                $$$$$$$$",
"$$$$$$$$                                                $$$$$$$$"
};
