/* XPM */
static char *f980802a52824407801dee666459736bPO4w29E4D5QYBkfe[] = {
/* columns rows colors chars-per-pixel */
"32 32 57 1 ",
"  c #3E8948",
". c #4D4439",
"X c #B57D4B",
"o c #428246",
"O c #C99E59",
"+ c #654432",
"@ c #9B6942",
"# c #B87F4C",
"$ c #5B3D30",
"% c #AC7749",
"& c #CEA15A",
"* c #5D4F3C",
"= c #AF7B4B",
"- c #514539",
"; c #6D4A35",
": c #584635",
"> c #D5AD69",
", c #3D8A48",
"< c #705237",
"1 c #77735E",
"2 c #C09757",
"3 c #716852",
"4 c #754B35",
"5 c #7E5539",
"6 c #83573A",
"7 c #946440",
"8 c #956843",
"9 c #58594C",
"0 c #CCCEBE",
"q c #586057",
"w c #624A35",
"e c #5D4032",
"r c #8D603F",
"t c #C0C8BF",
"y c #BCC1B6",
"u c #7C5D3C",
"i c #574D38",
"p c #9F6C43",
"a c #A6ADA5",
"s c #60665A",
"d c #BB834E",
"f c #3E8848",
"g c #784F37",
"h c #4F544B",
"j c #865D3D",
"k c #66624F",
"l c #9BA39B",
"z c #A57347",
"x c #69593E",
"c c #C9A566",
"v c #497D44",
"b c #457A43",
"n c #B5B8AB",
"m c #807961",
"M c #B3B5A6",
"N c #656D64",
"B c #7E7D6B",
/* pixels */
"                                ",
"                                ",
"         ,      ,,  ,,,         ",
"       foooooooooooooooof       ",
"      ,oi:<<<<<<::<<:::io,,     ",
"   fooov*;566665;;55;;;*vooof   ",
"  ,ox<<u2OOOOOOOOOOOOOO2u<:io,  ",
" fovu66j2O&&&&&&&&&&&&&2r5;*vooo",
" oxu2&&2<;@pppppj666666r2&O2u<uu",
",o<6&>&2wer7rr7rg44444452&>&54jj",
",o<6&&z8:-gg::gg::44:-e+5r&O;+uj",
"ov5jOO8j--;;--;;--;;-.ee;5&O<+uu",
"<5%=d=*-..--..--..--....-*O&Xz;e",
"g5%Xd=i..................*O&#zwe",
"3331OO*..................*O&k9hh",
"331mO2xi-..............-ix22sqhh",
"31yym122i..............i22ksllqh",
"k1yyBmccx**************xccssllqh",
"ew1Byt00cOOOOOOOOOOOOOOc00als9:e",
"$ek1ytty>>>>>>>>>>>>>>>>yyalqhe$",
"$+r811sNy000nn000000nMMaNqqqrr+$",
"e+7@339sntttaaytttttaaalk99987+$",
"4g%XX=871111qqqs1111qqqs%%88=%+$",
"g5=##X@8333399993333999k=X@@X%+$",
"g5=##X@@==88%==%88======#X@@X%+$",
"4g=##X@@XX@@X##X@@X######X@@X%+$",
"e+%##X@@XX@@X##X@@X######X@@X%+$",
":wz=#X@@XXppX##X@@X#XX###X@@%zw:",
"obw;=X@@X#XX###X@@XXppX##X@7;wbo",
",oiwz%77%%%%%%%%77%%77%%%%7rwio,",
" fobw++++++++++++++++++++++wbof ",
"  ,o:$$$$$$$$$$$$$$$$$$$$$$:o,  "
};
