/* XPM */
static char *result[] = {
/* columns rows colors chars-per-pixel */
"32 32 57 1 ",
"  c #3E8948",
". c #753C39",
"X c #3A7D44",
"o c #1C2028",
"O c #3E8A48",
"+ c #181424",
"@ c #7C413C",
"# c #2C232D",
"$ c #422731",
"% c #EAAE7D",
"& c #6B3837",
"* c #D49E74",
"= c #E9A87B",
"- c #211726",
"; c #B46850",
": c #703A38",
"> c #3B2530",
", c #1E2B2B",
"< c #4D3035",
"1 c #C07858",
"2 c #763D39",
"3 c #291C28",
"4 c #D29971",
"5 c #272B42",
"6 c #484160",
"7 c #1A182A",
"8 c #343F5E",
"9 c #AC634E",
"0 c #402E34",
"q c #2F2D30",
"w c #CD855F",
"e c #BC6D53",
"r c #C08F6B",
"t c #D83145",
"y c #623536",
"u c #374363",
"i c #B97758",
"p c #377141",
"a c #A32035",
"s c #E19D74",
"d c #A52E3B",
"f c #AF6C52",
"g c #83453E",
"h c #DEA277",
"j c #955848",
"k c #387342",
"l c #303B58",
"z c #423847",
"x c #E26E72",
"c c #364465",
"v c #C6364C",
"b c #F87E7B",
"n c #377241",
"m c #78403B",
"M c #367141",
"N c #C73346",
"B c #F67C7A",
/* pixels */
"      OXo++-&......&-++++oXO    ",
"      Xp#--3&2@@@@2&3----#pX    ",
"    OX,oy&&&.@9;;9@.&&&&&yo,XO  ",
"    Xpo3&2...@9;e;g@@@2.2&3opX  ",
"  OX,oy&.....2@g;e;;;9@...&yo,XO",
"  OXo-&2.......@9;eee;g@2.2&-oXO",
"  OXo-&........2@g;eee;9@..&-oXO",
"  OXo-y:..::.....@9;;;;9@..&-oXO",
"  OXo-$<::<<:....2@@@@@@2..&-oXO",
"  OXo+>$&&$$&:............:y-oXO",
"  OXo+>$$$$$$$:..........:<$+oXO",
"  OXo+>$$$$$<<m@@@@@@@@@gm$>o,XO",
"  OXo+>$$$><fi11111111111f#opX  ",
"  OXo+>$$$><1wwwiiwwwwiiwi3oXO  ",
"  OXo+>$>>><4==4004==40044#oXO  ",
"  OX,o>><<$y*%%*##*%%*##**#oXO  ",
"    Xpo#r4@@h%%*##*%%*##**#oXO  ",
"    OXo#*hjjh%%*00*%%*00**#oXO  ",
"    OXo#*%hh%%%=xx=%%=xx=*#oXO  ",
"    OX,qr*==%%%=bb=%%=bB4rq,XO  ",
"      Xkq0iw=%%%==%%%%=40qkX    ",
"      XMo39iss**ssss***r#oXO    ",
"    OX,o++3>ddzzddddzz##+oXO    ",
"    Xkq###7-aa55aaaa55++#qkX    ",
"  OX,qr**r<$tt66tttt6l7#rrq,XO  ",
"  OXo#*%=4<$Nv66vttv687#44#oXO  ",
"  OXo#*=1f<$66uu6666u873ff3oXO  ",
"  OX,qr4fj$>8ccu888uul73jj#,XO  ",
"    Xkq#33+78cc8o755557+3#nX    ",
"    OX,oooool88l7+5555ooo,XO    ",
"      XXXXXno777+++7+oMXXX      ",
"      OOOOOXo++++++++oXOOO      "
};
