/* XPM */
static const char *tmp_player[] = {
/* columns rows colors chars-per-pixel */
"64 64 18 1 ",
"  c #171424",
". c #181425",
"X c #3F2731",
"o c #753C39",
"O c #242B42",
"+ c #252C43",
"@ c #374464",
"# c #384565",
"$ c #A51F33",
"% c #A61F34",
"& c #E93245",
"* c #BB6D53",
"= c #C87F5B",
"- c #C87F5C",
"; c #FA717A",
": c #3E8948",
"> c #C9805C",
", c #E9AD7D",
/* pixels */
"::::::::::::::::    ....oooooooooooooooo....        ::::::::::::",
"::::::::::::::::    ....oooooooooooooooo....        ::::::::::::",
"::::::::::::::::    ....oooooooooooooooo....        ::::::::::::",
"::::::::::::::::    ....oooooooooooooooo....        ::::::::::::",
"::::::::::::    oooooooooooo********oooooooooooooooo    ::::::::",
"::::::::::::    oooooooooooo********oooooooooooooooo    ::::::::",
"::::::::::::    oooooooooooo********oooooooooooooooo    ::::::::",
"::::::::::::    oooooooooooo********oooooooooooooooo    ::::::::",
"::::::::    oooooooooooooooooooo************oooooooooooo    ::::",
"::::::::    oooooooooooooooooooo************oooooooooooo    ::::",
"::::::::    oooooooooooooooooooo************oooooooooooo    ::::",
"::::::::    oooooooooooooooooooo************oooooooooooo    ::::",
"::::::::....oooooooooooooooooooooooo************oooooooo....::::",
"::::::::....oooooooooooooooooooooooo************oooooooo....::::",
"::::::::....oooooooooooooooooooooooo************oooooooo....::::",
"::::::::....oooooooooooooooooooooooo************oooooooo....::::",
"::::::::....XXXXooooXXXXoooooooooooooooooooooooooooooooo....::::",
"::::::::....XXXXooooXXXXoooooooooooooooooooooooooooooooo....::::",
"::::::::....XXXXooooXXXXoooooooooooooooooooooooooooooooo....::::",
"::::::::....XXXXooooXXXXoooooooooooooooooooooooooooooooo....::::",
"::::::::....XXXXXXXXXXXXXXXXooooooooooooooooooooooooXXXX    ::::",
"::::::::....XXXXXXXXXXXXXXXXooooooooooooooooooooooooXXXX    ::::",
"::::::::....XXXXXXXXXXXXXXXXooooooooooooooooooooooooXXXX    ::::",
"::::::::....XXXXXXXXXXXXXXXXooooooooooooooooooooooooXXXX    ::::",
"::::::::    XXXXXXXXXXXX========---->>>>-------->>>>....::::::::",
"::::::::    XXXXXXXXXXXX========---->>>>-------->>>>....::::::::",
"::::::::    XXXXXXXXXXXX========---->>>>-------->>>>....::::::::",
"::::::::    XXXXXXXXXXXX========---->>>>-------->>>>....::::::::",
"::::::::    XXXXXXXXXXXX,,,,,,,,    ,,,,,,,,....,,,,....::::::::",
"::::::::    XXXXXXXXXXXX,,,,,,,,    ,,,,,,,,....,,,,....::::::::",
"::::::::    XXXXXXXXXXXX,,,,,,,,    ,,,,,,,,....,,,,....::::::::",
"::::::::    XXXXXXXXXXXX,,,,,,,,    ,,,,,,,,....,,,,....::::::::",
"::::::::::::....,,,,oooo,,,,,,,,....,,,,,,,,....,,,,....::::::::",
"::::::::::::....,,,,oooo,,,,,,,,....,,,,,,,,....,,,,....::::::::",
"::::::::::::....,,,,oooo,,,,,,,,....,,,,,,,,....,,,,....::::::::",
"::::::::::::....,,,,oooo,,,,,,,,....,,,,,,,,....,,,,....::::::::",
"::::::::::::....,,,,,,,,,,,,,,,,;;;;,,,,,,,,;;;;,,,,....::::::::",
"::::::::::::....,,,,,,,,,,,,,,,,;;;;,,,,,,,,;;;;,,,,....::::::::",
"::::::::::::....,,,,,,,,,,,,,,,,;;;;,,,,,,,,;;;;,,,,....::::::::",
"::::::::::::....,,,,,,,,,,,,,,,,;;;;,,,,,,,,;;;;,,,,....::::::::",
"::::::::::::::::....====,,,,,,,,,,,,,,,,,,,,,,,,....::::::::::::",
"::::::::::::::::....====,,,,,,,,,,,,,,,,,,,,,,,,....::::::::::::",
"::::::::::::::::....====,,,,,,,,,,,,,,,,,,,,,,,,....::::::::::::",
"::::::::::::::::....====,,,,,,,,,,,,,,,,,,,,,,,,....::::::::::::",
"::::::::::::            $$$$OOOO%%%%$$$$++++        ::::::::::::",
"::::::::::::            $$$$OOOO%%%%$$$$++++        ::::::::::::",
"::::::::::::            $$$$OOOO%%%%$$$$++++        ::::::::::::",
"::::::::::::            $$$$OOOO%%%%$$$$++++        ::::::::::::",
"::::::::    ,,,,,,,,XXXX&&&&@@@@&&&&&&&&@@@@    ,,,,    ::::::::",
"::::::::    ,,,,,,,,XXXX&&&&@@@@&&&&&&&&@@@@    ,,,,    ::::::::",
"::::::::    ,,,,,,,,XXXX&&&&@@@@&&&&&&&&@@@@    ,,,,    ::::::::",
"::::::::    ,,,,,,,,XXXX&&&&@@@@&&&&&&&&@@@@    ,,,,    ::::::::",
"::::::::....,,,,****XXXX@@@@@@@@####@@@@@@@@    ****    ::::::::",
"::::::::....,,,,****XXXX@@@@@@@@####@@@@@@@@    ****    ::::::::",
"::::::::....,,,,****XXXX@@@@@@@@####@@@@@@@@    ****    ::::::::",
"::::::::....,,,,****XXXX@@@@@@@@####@@@@@@@@    ****    ::::::::",
"::::::::::::....        @@@@@@@@    ++++++++        ::::::::::::",
"::::::::::::....        @@@@@@@@    ++++++++        ::::::::::::",
"::::::::::::....        @@@@@@@@    ++++++++        ::::::::::::",
"::::::::::::....        @@@@@@@@    ++++++++        ::::::::::::",
"::::::::::::::::::::::::                    ::::::::::::::::::::",
"::::::::::::::::::::::::                    ::::::::::::::::::::",
"::::::::::::::::::::::::                    ::::::::::::::::::::",
"::::::::::::::::::::::::                    ::::::::::::::::::::"
};
