/* XPM */
static char *result[] = {
/* columns rows colors chars-per-pixel */
"32 32 95 2 ",
"   c #753C39",
".  c #3E8948",
"X  c #7C413C",
"o  c #1F1726",
"O  c #3D2630",
"+  c #171424",
"@  c #2C232D",
"#  c #EAAE7D",
"$  c #D49E74",
"%  c #6B3837",
"&  c #251C28",
"*  c #5C3E30",
"=  c #1B1929",
"-  c #26212A",
";  c #B46850",
":  c #3E8A48",
">  c #3A7D44",
",  c #5D4934",
"<  c #428246",
"1  c #763D39",
"2  c #C07858",
"3  c #AF7849",
"4  c #3F2E33",
"5  c #644433",
"6  c #484160",
"7  c #442832",
"8  c #553930",
"9  c #785439",
"0  c #703A38",
"q  c #343F5E",
"w  c #E0A076",
"e  c #AC634E",
"r  c #EBA77D",
"t  c #1B2029",
"y  c #A67448",
"u  c #5C4133",
"i  c #CD855F",
"p  c #E7A97A",
"a  c #BC6D53",
"s  c #4E5249",
"d  c #D19870",
"f  c #33282F",
"g  c #374363",
"h  c #88613F",
"j  c #764C36",
"k  c #966743",
"l  c #9F6E46",
"z  c #3E8848",
"x  c #4A2B32",
"c  c #447A43",
"v  c #503435",
"b  c #6B4834",
"n  c #2B2C43",
"m  c #855740",
"M  c #B97758",
"N  c #76725E",
"B  c #51564D",
"V  c #B77E4C",
"C  c #633535",
"Z  c #22283F",
"A  c #A32035",
"S  c #A52E3B",
"D  c #D33245",
"F  c #585D52",
"G  c #BABFB5",
"H  c #AF6C52",
"J  c #83453E",
"K  c #4C3035",
"L  c #D79A72",
"P  c #377141",
"I  c #1E2C2B",
"U  c #303B58",
"Y  c #C6354A",
"T  c #6D6A59",
"R  c #E26E72",
"E  c #C08F6C",
"W  c #6D6953",
"Q  c #453847",
"!  c #6B624D",
"~  c #F87E7B",
"^  c #9B5C49",
"/  c #C2906C",
"(  c #434945",
")  c #364465",
"_  c #6F5A3A",
"`  c #6E6651",
"'  c #E43043",
"]  c #766B51",
"[  c #807E6C",
"{  c #B0B6AF",
"}  c #BE8E6B",
"|  c #9BA39B",
" . c #959C96",
".. c #383846",
"X. c #F67C7A",
/* pixels */
". . . . . . : > t + + o %             % o + + + + t > : . . . . ",
". . . . . z > P - o o & % 1 X X X X 1 % & o o o o - P > z . . . ",
". . . . : > I - C % % %   X e ; ; e X   % % % % % C - I > : . . ",
". . . z > P - & % 1       X e ; a ; J X X X 1   1 % & - P > z . ",
". . : > I - C %           1 X J ; a ; ; ; e X       % C - I > : ",
". . : > t o % 1               X e ; a a a ; J X 1   1 % o t > : ",
". . : > t o %                 1 X J ; a a a ; e X     % o t > : ",
". z < c t o C 0     0 0           X e ; ; ; ; e X     % o t c < ",
". < _ b & o O x 0 0 x x 0         1 X X X X X X 1     % o & _ h ",
": < 9 b & o O 7 % % 7 7 % 0                         0 C o & 9 h ",
": < 9 b & o O O 7 7 O O 7 x 0                     0 x O + & 9 h ",
"< c 9 j & o O O O O O 7 K v X X X X X X X X X X J X 7 O - f 9 m ",
"9 9 3 l - + O O O O O K H M 2 2 2 2 2 2 2 2 2 2 2 H @ - k l b u ",
"j 9 3 y - + O O O O O K 2 i i i M M i i i i M M i M - & l y 5 u ",
"` ` ] ! & + O O O O O v L p p d 4 4 d p p d 4 4 L d @ = s F s s ",
"W T N T @ & O O v v 7 8 $ # # $ @ @ $ # # $ @ @ $ $ @ = B F B B ",
"W N G G T B & @ / d X X w # # $ @ @ $ # # $ @ @ $ $ @ @  .| F B ",
"! N G G [ T & @ $ w m m w # # $ 4 4 $ # # $ 4 4 $ $ @ @  .| F s ",
"u , N [ G { @ @ $ # w w # # # r R R r # # r R R r $ @ = B F u u ",
"* u ! N G { n f } $ p p # # # r ~ ~ r # # r ~ X.L } f - s B u * ",
"* 5 h k N N s ( f 4 M i p # # # r r # # # # r L 4 f ( s h h 5 * ",
"* 5 k k ] W s ( = & e M L w $ $ w w w w $ $ $ } @ = s F k k 5 * ",
"j 9 3 V V y @ = + + & O S S Q Q S S S S Q ..f @ + & m k 3 3 5 * ",
"j 9 3 V y l 4 @ @ @ o o A A n n A A A A n Z + + @ f m k V 3 5 * ",
"j 9 3 y f 4 E $ $ / K 7 D D 6 6 D ' ' D 6 U = @ E / f 5 V 3 5 * ",
"j 9 3 y & @ $ # p d v x Y Y 6 6 Y D D Y 6 q = @ d d @ * V 3 5 * ",
"* b 3 y & @ $ p 2 H K 7 6 6 g g 6 6 6 6 g q = & H H & * V 3 5 * ",
", , y l f 4 E d H ^ x O q ) ) g q q q g g U = & ^ ^ @ 5 3 y , , ",
"< c , b l l 4 @ & & o = q ) ) q t = n n n n = + & @ m h b , c < ",
": < , , y l @ o o o o & U q q U = + Z Z Z Z = o o - m h , , < : ",
". z < c , 5 8 8 8 8 8 v & = = = + + + = + = v 8 8 8 u , c < z . ",
". . : < , * * * * * * 8 o + + + + + + + + o 8 * * * * , < : . . "
};
