/* XPM */
static const char *player_on_exit[] = {
/* columns rows colors chars-per-pixel */
"64 64 27 1 ",
"  c #171424",
". c #181425",
"X c #3F2731",
"o c #5C3E30",
"O c #753C39",
"+ c #784D36",
"@ c #242B42",
"# c #252C43",
"$ c #374464",
"% c #384565",
"& c #4D564D",
"* c #6D6954",
"= c #A51F33",
"- c #A61F34",
"; c #835F3D",
": c #E93245",
"> c #986641",
", c #B87F4C",
"< c #BB6D53",
"1 c #C87F5B",
"2 c #C87F5C",
"3 c #FA717A",
"4 c #3E8948",
"5 c #C9805C",
"6 c #E9AD7D",
"7 c #ADB5AD",
"8 c #CBD3CB",
/* pixels */
"4444444444444444    ....OOOOOOOOOOOOOOOO....        444444444444",
"4444444444444444    ....OOOOOOOOOOOOOOOO....        444444444444",
"4444444444444444    ....OOOOOOOOOOOOOOOO....        444444444444",
"4444444444444444    ....OOOOOOOOOOOOOOOO....        444444444444",
"444444444444    OOOOOOOOOOOO<<<<<<<<OOOOOOOOOOOOOOOO    44444444",
"444444444444    OOOOOOOOOOOO<<<<<<<<OOOOOOOOOOOOOOOO    44444444",
"444444444444    OOOOOOOOOOOO<<<<<<<<OOOOOOOOOOOOOOOO    44444444",
"444444444444    OOOOOOOOOOOO<<<<<<<<OOOOOOOOOOOOOOOO    44444444",
"44444444    OOOOOOOOOOOOOOOOOOOO<<<<<<<<<<<<OOOOOOOOOOOO    4444",
"44444444    OOOOOOOOOOOOOOOOOOOO<<<<<<<<<<<<OOOOOOOOOOOO    4444",
"44444444    OOOOOOOOOOOOOOOOOOOO<<<<<<<<<<<<OOOOOOOOOOOO    4444",
"44444444    OOOOOOOOOOOOOOOOOOOO<<<<<<<<<<<<OOOOOOOOOOOO    4444",
"44444444....OOOOOOOOOOOOOOOOOOOOOOOO<<<<<<<<<<<<OOOOOOOO....4444",
"44444444....OOOOOOOOOOOOOOOOOOOOOOOO<<<<<<<<<<<<OOOOOOOO....4444",
"44444444....OOOOOOOOOOOOOOOOOOOOOOOO<<<<<<<<<<<<OOOOOOOO....4444",
"44444444....OOOOOOOOOOOOOOOOOOOOOOOO<<<<<<<<<<<<OOOOOOOO....4444",
"4444++++....XXXXOOOOXXXXOOOOOOOOOOOOOOOOOOOOOOOOOOOOOOOO....;;;;",
"4444++++....XXXXOOOOXXXXOOOOOOOOOOOOOOOOOOOOOOOOOOOOOOOO....;;;;",
"4444++++....XXXXOOOOXXXXOOOOOOOOOOOOOOOOOOOOOOOOOOOOOOOO....;;;;",
"4444++++....XXXXOOOOXXXXOOOOOOOOOOOOOOOOOOOOOOOOOOOOOOOO....;;;;",
"4444++++....XXXXXXXXXXXXXXXXOOOOOOOOOOOOOOOOOOOOOOOOXXXX    ;;;;",
"4444++++....XXXXXXXXXXXXXXXXOOOOOOOOOOOOOOOOOOOOOOOOXXXX    ;;;;",
"4444++++....XXXXXXXXXXXXXXXXOOOOOOOOOOOOOOOOOOOOOOOOXXXX    ;;;;",
"4444++++....XXXXXXXXXXXXXXXXOOOOOOOOOOOOOOOOOOOOOOOOXXXX    ;;;;",
"++++,,,,    XXXXXXXXXXXX1111111122225555222222225555....,,,,oooo",
"++++,,,,    XXXXXXXXXXXX1111111122225555222222225555....,,,,oooo",
"++++,,,,    XXXXXXXXXXXX1111111122225555222222225555....,,,,oooo",
"++++,,,,    XXXXXXXXXXXX1111111122225555222222225555....,,,,oooo",
"********    XXXXXXXXXXXX66666666    66666666....6666....&&&&&&&&",
"********    XXXXXXXXXXXX66666666    66666666....6666....&&&&&&&&",
"********    XXXXXXXXXXXX66666666    66666666....6666....&&&&&&&&",
"********    XXXXXXXXXXXX66666666    66666666....6666....&&&&&&&&",
"****8888****....6666OOOO66666666....66666666....6666....7777&&&&",
"****8888****....6666OOOO66666666....66666666....6666....7777&&&&",
"****8888****....6666OOOO66666666....66666666....6666....7777&&&&",
"****8888****....6666OOOO66666666....66666666....6666....7777&&&&",
"oooo****8888....666666666666666633336666666633336666....&&&&oooo",
"oooo****8888....666666666666666633336666666633336666....&&&&oooo",
"oooo****8888....666666666666666633336666666633336666....&&&&oooo",
"oooo****8888....666666666666666633336666666633336666....&&&&oooo",
"oooo>>>>****&&&&....1111666666666666666666666666....&&&&>>>>oooo",
"oooo>>>>****&&&&....1111666666666666666666666666....&&&&>>>>oooo",
"oooo>>>>****&&&&....1111666666666666666666666666....&&&&>>>>oooo",
"oooo>>>>****&&&&....1111666666666666666666666666....&&&&>>>>oooo",
"++++,,,,,,,,            ====@@@@----====####        >>>>,,,,oooo",
"++++,,,,,,,,            ====@@@@----====####        >>>>,,,,oooo",
"++++,,,,,,,,            ====@@@@----====####        >>>>,,,,oooo",
"++++,,,,,,,,            ====@@@@----====####        >>>>,,,,oooo",
"++++,,,,    66666666XXXX::::$$$$::::::::$$$$    6666   >,,,,oooo",
"++++,,,,    66666666XXXX::::$$$$::::::::$$$$    6666   >,,,,oooo",
"++++,,,,    66666666XXXX::::$$$$::::::::$$$$    6666   >,,,,oooo",
"++++,,,,    66666666XXXX::::$$$$::::::::$$$$    6666   >,,,,oooo",
"oooo,,,,....6666<<<<XXXX$$$$$$$$%%%%$$$$$$$$    <<<<   >,,,,oooo",
"oooo,,,,....6666<<<<XXXX$$$$$$$$%%%%$$$$$$$$    <<<<   >,,,,oooo",
"oooo,,,,....6666<<<<XXXX$$$$$$$$%%%%$$$$$$$$    <<<<   >,,,,oooo",
"oooo,,,,....6666<<<<XXXX$$$$$$$$%%%%$$$$$$$$    <<<<   >,,,,oooo",
"4444oooo,,,,....        $$$$$$$$    ########        >>>>oooo4444",
"4444oooo,,,,....        $$$$$$$$    ########        >>>>oooo4444",
"4444oooo,,,,....        $$$$$$$$    ########        >>>>oooo4444",
"4444oooo,,,,....        $$$$$$$$    ########        >>>>oooo4444",
"44444444oooooooooooooooo                    oooooooooooo44444444",
"44444444oooooooooooooooo                    oooooooooooo44444444",
"44444444oooooooooooooooo                    oooooooooooo44444444",
"44444444oooooooooooooooo                    oooooooooooo44444444"
};
